<svg width="32" height="32" viewBox="0 0 32 32" fill="none" xmlns="http://www.w3.org/2000/svg">
<path d="M0.000488281 31.9999C0.000488098 29.8987 0.414338 27.8181 1.21841 25.8769C2.02249 23.9357 3.20104 22.1719 4.68677 20.6862C6.17251 19.2004 7.93633 18.0219 9.87754 17.2178C11.8187 16.4137 13.8993 15.9999 16.0005 15.9999V31.9999L0.000488281 31.9999Z" fill="#1A1A1A"/>
<path d="M16.0005 15.9999C16.0005 18.101 16.4143 20.1816 17.2184 22.1228C18.0225 24.064 19.201 25.8278 20.6868 27.3136C22.1725 28.7993 23.9363 29.9779 25.8775 30.7819C27.8188 31.586 29.8993 31.9999 32.0005 31.9999L32.0005 15.9999L16.0005 15.9999Z" fill="#FFD400"/>
<path d="M16.0005 15.9999C16.0005 13.8987 15.5866 11.8181 14.7825 9.87693C13.9785 7.93572 12.7999 6.1719 11.3142 4.68616C9.82845 3.20043 8.06462 2.02188 6.12342 1.2178C4.18221 0.413729 2.10164 -0.00012207 0.000488281 -0.00012207L0.000489391 15.9999H16.0005Z" fill="#FFD400"/>
<path d="M32.0005 -0.00012207C32.0005 2.10103 31.5866 4.1816 30.7825 6.12281C29.9785 8.06401 28.7999 9.82784 27.3142 11.3136C25.8284 12.7993 24.0646 13.9779 22.1234 14.7819C20.1822 15.586 18.1016 15.9999 16.0005 15.9999L16.0005 -0.00012207H32.0005Z" fill="#1A1A1A"/>
</svg>
